<svg width="66" height="66" viewBox="0 0 66 66" fill="none" xmlns="http://www.w3.org/2000/svg">
<path d="M48.4688 4.12501C50.8965 4.12501 53.1738 4.58692 55.3008 5.51075C57.4277 6.43458 59.2861 7.68067 60.876 9.24903C62.4658 10.8174 63.7119 12.6758 64.6143 14.8242C65.5166 16.9727 65.9785 19.25 66 21.6563C66 23.9981 65.5596 26.2432 64.6787 28.3916C63.7979 30.54 62.5303 32.4307 60.876 34.0635L33 61.9072L5.12402 34.0635C3.49121 32.4307 2.23438 30.54 1.35352 28.3916C0.472656 26.2432 0.0214844 23.9981 0 21.6563C0 19.25 0.451172 16.9834 1.35352 14.8565C2.25586 12.7295 3.5127 10.8711 5.12402 9.28126C6.73535 7.69141 8.59375 6.43458 10.6992 5.51075C12.8047 4.58692 15.082 4.12501 17.5312 4.12501C19.3145 4.12501 20.9043 4.32911 22.3008 4.73731C23.6973 5.14552 24.9863 5.70411 26.168 6.41309C27.3496 7.12208 28.4883 7.9922 29.584 9.02345C30.6797 10.0547 31.8184 11.1611 33 12.3428C34.1816 11.1397 35.3096 10.0332 36.3838 9.02345C37.458 8.01368 38.5967 7.1543 39.7998 6.44532C41.0029 5.73634 42.3027 5.167 43.6992 4.73731C45.0957 4.30763 46.6855 4.10352 48.4688 4.12501ZM57.9434 31.1309C59.2109 29.8633 60.1777 28.4131 60.8438 26.7803C61.5098 25.1475 61.8428 23.4395 61.8428 21.6563C61.8428 19.7871 61.499 18.0469 60.8115 16.4356C60.124 14.8242 59.1787 13.417 57.9756 12.2139C56.7725 11.0107 55.3545 10.0762 53.7217 9.41016C52.0889 8.74415 50.3379 8.4004 48.4688 8.37891C46.6641 8.37891 45.0635 8.65821 43.667 9.2168C42.2705 9.7754 40.9814 10.5274 39.7998 11.4727C38.6182 12.418 37.4902 13.46 36.416 14.5986C35.3418 15.7373 34.2031 16.9297 33 18.1758C31.8398 17.0156 30.7119 15.8447 29.6162 14.6631C28.5205 13.4815 27.3818 12.418 26.2002 11.4727C25.0186 10.5274 23.7188 9.75391 22.3008 9.15235C20.8828 8.55079 19.293 8.25001 17.5312 8.25001C15.6836 8.25001 13.9434 8.59376 12.3105 9.28126C10.6777 9.96876 9.25977 10.9248 8.05664 12.1494C6.85352 13.374 5.89746 14.8027 5.18848 16.4356C4.47949 18.0684 4.125 19.8086 4.125 21.6563C4.125 23.4395 4.45801 25.1475 5.12402 26.7803C5.79004 28.4131 6.76758 29.8633 8.05664 31.1309L33 56.0742L57.9434 31.1309Z" fill="#606060"/>
</svg>
