<svg width="66" height="66" viewBox="0 0 66 66" fill="none" xmlns="http://www.w3.org/2000/svg">
<path d="M30.9375 0C33.7734 0 36.5127 0.365234 39.1553 1.0957C41.7979 1.82617 44.2578 2.86816 46.5352 4.22168C48.8125 5.5752 50.8965 7.18652 52.7871 9.05566C54.6777 10.9248 56.2891 13.0088 57.6211 15.3076C58.9531 17.6064 59.9951 20.0771 60.7471 22.7197C61.499 25.3623 61.875 28.1016 61.875 30.9375C61.875 33.7734 61.5098 36.5127 60.7793 39.1553C60.0488 41.7979 59.0068 44.2578 57.6533 46.5352C56.2998 48.8125 54.6885 50.8965 52.8193 52.7871C50.9502 54.6777 48.8662 56.2891 46.5674 57.6211C44.2686 58.9531 41.7979 59.9951 39.1553 60.7471C36.5127 61.499 33.7734 61.875 30.9375 61.875C28.1016 61.875 25.3623 61.5098 22.7197 60.7793C20.0771 60.0488 17.6172 59.0068 15.3398 57.6533C13.0625 56.2998 10.9785 54.6885 9.08789 52.8193C7.19727 50.9502 5.58594 48.8662 4.25391 46.5674C2.92188 44.2686 1.87988 41.8086 1.12793 39.1875C0.375977 36.5664 0 33.8164 0 30.9375C0 28.1016 0.365234 25.3623 1.0957 22.7197C1.82617 20.0771 2.86816 17.6172 4.22168 15.3398C5.5752 13.0625 7.18652 10.9785 9.05566 9.08789C10.9248 7.19727 13.0088 5.58594 15.3076 4.25391C17.6064 2.92188 20.0664 1.87988 22.6875 1.12793C25.3086 0.375977 28.0586 0 30.9375 0ZM33 45.375H28.875V49.5H33V45.375ZM33.2578 39.9287C33.2578 39.1338 33.333 38.3818 33.4834 37.6729C33.6338 36.9639 34.0205 36.2979 34.6436 35.6748C35.4814 34.8369 36.3086 34.042 37.125 33.29C37.9414 32.5381 38.6719 31.7324 39.3164 30.873C39.9609 30.0137 40.4873 29.1006 40.8955 28.1338C41.3037 27.167 41.5078 26.0391 41.5078 24.75C41.5078 23.2891 41.2285 21.9248 40.6699 20.6572C40.1113 19.3896 39.3594 18.2725 38.4141 17.3057C37.4688 16.3389 36.3516 15.5762 35.0625 15.0176C33.7734 14.459 32.3984 14.1797 30.9375 14.1797C29.4766 14.1797 28.1123 14.459 26.8447 15.0176C25.5771 15.5762 24.46 16.3281 23.4932 17.2734C22.5264 18.2188 21.7637 19.3359 21.2051 20.625C20.6465 21.9141 20.3672 23.2891 20.3672 24.75H25.0078C25.0078 23.9336 25.1582 23.1709 25.459 22.4619C25.7598 21.7529 26.1895 21.1191 26.748 20.5605C27.3066 20.002 27.9297 19.583 28.6172 19.3037C29.3047 19.0244 30.0781 18.8633 30.9375 18.8203C31.7539 18.8203 32.5166 18.9707 33.2256 19.2715C33.9346 19.5723 34.5684 20.002 35.127 20.5605C35.6855 21.1191 36.1045 21.7422 36.3838 22.4297C36.6631 23.1172 36.8242 23.8906 36.8672 24.75C36.8672 25.6309 36.6631 26.415 36.2549 27.1025C35.8467 27.79 35.3418 28.4453 34.7402 29.0684C34.1387 29.6914 33.4727 30.3359 32.7422 31.002C32.0117 31.668 31.3564 32.377 30.7764 33.1289C30.1963 33.8809 29.6807 34.751 29.2295 35.7393C28.7783 36.7275 28.5742 37.877 28.6172 39.1875V41.25H33.2578V39.9287Z" fill="black"/>
</svg>
