<svg width="66" height="66" viewBox="0 0 66 66" fill="none" xmlns="http://www.w3.org/2000/svg">
<path d="M52.25 37.3615V27.5C52.25 18.6532 46.2413 11.2007 38.1013 8.9595C37.2955 6.93 35.3265 5.5 33 5.5C30.6735 5.5 28.7045 6.93 27.8988 8.9595C19.7588 11.2035 13.75 18.6532 13.75 27.5V37.3615L9.05575 42.0558C8.79989 42.3107 8.59697 42.6137 8.45868 42.9474C8.3204 43.2811 8.24948 43.6388 8.25 44V49.5C8.25 50.2293 8.53973 50.9288 9.05546 51.4445C9.57118 51.9603 10.2707 52.25 11 52.25H55C55.7294 52.25 56.4288 51.9603 56.9446 51.4445C57.4603 50.9288 57.75 50.2293 57.75 49.5V44C57.7505 43.6388 57.6796 43.2811 57.5413 42.9474C57.403 42.6137 57.2001 42.3107 56.9443 42.0558L52.25 37.3615ZM52.25 46.75H13.75V45.1385L18.4443 40.4442C18.7001 40.1893 18.903 39.8863 19.0413 39.5526C19.1796 39.2189 19.2505 38.8612 19.25 38.5V27.5C19.25 19.9183 25.4183 13.75 33 13.75C40.5818 13.75 46.75 19.9183 46.75 27.5V38.5C46.75 39.2315 47.0388 39.93 47.5558 40.4442L52.25 45.1385V46.75ZM33 60.5C34.7031 60.5021 36.3645 59.9736 37.7534 58.9879C39.1422 58.0023 40.1894 56.6083 40.7495 55H25.2505C25.8106 56.6083 26.8578 58.0023 28.2467 58.9879C29.6355 59.9736 31.2969 60.5021 33 60.5Z" fill="black"/>
</svg>
