<svg width="66" height="66" viewBox="0 0 66 66" fill="none" xmlns="http://www.w3.org/2000/svg">
<path d="M33 0C36.0293 0 38.9512 0.386719 41.7656 1.16016C44.5801 1.93359 47.2012 3.05078 49.6289 4.51172C52.0566 5.97266 54.2803 7.69141 56.2998 9.66797C58.3193 11.6445 60.0488 13.8682 61.4883 16.3389C62.9277 18.8096 64.0342 21.4414 64.8076 24.2344C65.5811 27.0273 65.9785 29.9492 66 33C66 36.0293 65.6133 38.9512 64.8398 41.7656C64.0664 44.5801 62.9492 47.2012 61.4883 49.6289C60.0273 52.0566 58.3086 54.2803 56.332 56.2998C54.3555 58.3193 52.1318 60.0488 49.6611 61.4883C47.1904 62.9277 44.5586 64.0342 41.7656 64.8076C38.9727 65.5811 36.0508 65.9785 33 66C29.9707 66 27.0488 65.6133 24.2344 64.8398C21.4199 64.0664 18.7988 62.9492 16.3711 61.4883C13.9434 60.0273 11.7197 58.3086 9.7002 56.332C7.68066 54.3555 5.95117 52.1318 4.51172 49.6611C3.07227 47.1904 1.96582 44.5586 1.19238 41.7656C0.418945 38.9727 0.0214844 36.0508 0 33C0 29.9707 0.386719 27.0488 1.16016 24.2344C1.93359 21.4199 3.05078 18.7988 4.51172 16.3711C5.97266 13.9434 7.69141 11.7197 9.66797 9.7002C11.6445 7.68066 13.8682 5.95117 16.3389 4.51172C18.8096 3.07227 21.4414 1.96582 24.2344 1.19238C27.0273 0.418945 29.9492 0.0214844 33 0ZM33 61.875C35.6641 61.875 38.2207 61.5312 40.6699 60.8438C43.1191 60.1562 45.418 59.1895 47.5664 57.9434C49.7148 56.6973 51.6592 55.1934 53.3994 53.4316C55.1396 51.6699 56.6436 49.7256 57.9111 47.5986C59.1787 45.4717 60.1562 43.1729 60.8438 40.7021C61.5312 38.2314 61.875 35.6641 61.875 33C61.875 30.3359 61.5312 27.7793 60.8438 25.3301C60.1562 22.8809 59.1895 20.582 57.9434 18.4336C56.6973 16.2852 55.1934 14.3408 53.4316 12.6006C51.6699 10.8604 49.7256 9.35645 47.5986 8.08887C45.4717 6.82129 43.1729 5.84375 40.7021 5.15625C38.2314 4.46875 35.6641 4.125 33 4.125C30.3359 4.125 27.7793 4.46875 25.3301 5.15625C22.8809 5.84375 20.582 6.81055 18.4336 8.05664C16.2852 9.30273 14.3408 10.8066 12.6006 12.5684C10.8604 14.3301 9.35645 16.2744 8.08887 18.4014C6.82129 20.5283 5.84375 22.8271 5.15625 25.2979C4.46875 27.7686 4.125 30.3359 4.125 33C4.125 35.6641 4.46875 38.2207 5.15625 40.6699C5.84375 43.1191 6.81055 45.418 8.05664 47.5664C9.30273 49.7148 10.8066 51.6592 12.5684 53.3994C14.3301 55.1396 16.2744 56.6436 18.4014 57.9111C20.5283 59.1787 22.8271 60.1562 25.2979 60.8438C27.7686 61.5312 30.3359 61.875 33 61.875Z" fill="black"/>
<g clip-path="url(#clip0)">
<path d="M40.066 36.9964C42.2574 37.7537 44.2313 38.8091 45.9877 40.1627C47.744 41.5162 49.2426 43.0953 50.4833 44.9C51.724 46.7047 52.6747 48.6624 53.3353 50.7733C53.996 52.8841 54.3263 55.0997 54.3263 57.42H51.2325C51.2325 54.7774 50.7653 52.3282 49.8307 50.0723C48.8961 47.8165 47.5909 45.8507 45.9152 44.1749C44.2394 42.4991 42.2816 41.202 40.0419 40.2835C37.8021 39.3651 35.3449 38.8897 32.67 38.8575C30.9459 38.8575 29.2863 39.075 27.691 39.5101C26.0958 39.9451 24.6134 40.5574 23.2438 41.347C21.8741 42.1365 20.6254 43.0953 19.4974 44.2232C18.3695 45.3511 17.4108 46.5999 16.6212 47.9695C15.8317 49.3392 15.2113 50.8297 14.7601 52.441C14.309 54.0523 14.0914 55.712 14.1075 57.42H11.0138C11.0138 55.0997 11.3522 52.8841 12.0289 50.7733C12.7057 48.6624 13.6644 46.7127 14.9052 44.9241C16.1459 43.1356 17.6444 41.5726 19.4008 40.2352C21.1571 38.8978 23.131 37.8262 25.3224 37.0206C24.0656 36.3438 22.9376 35.522 21.9386 34.5552C20.9396 33.5884 20.0936 32.5169 19.4008 31.3406C18.7079 30.1644 18.1681 28.8995 17.7814 27.546C17.3947 26.1924 17.2013 24.8067 17.2013 23.3887C17.2013 21.2457 17.6041 19.2396 18.4098 17.3704C19.2155 15.5013 20.3192 13.8577 21.7211 12.4398C23.1229 11.0218 24.7584 9.91803 26.6276 9.12848C28.4967 8.33893 30.5109 7.9361 32.67 7.91998C34.8131 7.91998 36.8192 8.32282 38.6884 9.12848C40.5575 9.93414 42.2011 11.0379 43.619 12.4398C45.037 13.8416 46.1408 15.4771 46.9303 17.3463C47.7199 19.2154 48.1227 21.2296 48.1388 23.3887C48.1388 24.8067 47.9535 26.1844 47.5829 27.5218C47.2123 28.8592 46.6725 30.116 45.9635 31.2923C45.2545 32.4686 44.4086 33.5401 43.4257 34.5069C42.4428 35.4737 41.3229 36.3035 40.066 36.9964ZM20.295 23.3887C20.295 25.0967 20.6173 26.7 21.2618 28.1985C21.9064 29.6971 22.7926 31.0023 23.9205 32.1141C25.0485 33.2259 26.3617 34.1121 27.8602 34.7728C29.3588 35.4334 30.962 35.7637 32.67 35.7637C34.3781 35.7637 35.9813 35.4415 37.4799 34.7969C38.9784 34.1524 40.2836 33.2662 41.3954 32.1382C42.5072 31.0103 43.3934 29.6971 44.0541 28.1985C44.7147 26.7 45.045 25.0967 45.045 23.3887C45.045 21.6807 44.7228 20.0775 44.0783 18.5789C43.4337 17.0804 42.5475 15.7752 41.4196 14.6634C40.2916 13.5516 38.9784 12.6653 37.4799 12.0047C35.9813 11.3441 34.3781 11.0137 32.67 11.0137C30.962 11.0137 29.3588 11.336 27.8602 11.9805C26.3617 12.6251 25.0565 13.5113 23.9447 14.6392C22.8329 15.7672 21.9467 17.0804 21.286 18.5789C20.6254 20.0775 20.295 21.6807 20.295 23.3887Z" fill="black"/>
</g>
<defs>
<clipPath id="clip0">
<rect width="49.5" height="49.5" fill="white" transform="translate(7.92004 7.91998)"/>
</clipPath>
</defs>
</svg>
